<svg width="35" height="39" viewBox="0 0 35 39" fill="none" xmlns="http://www.w3.org/2000/svg">
<path d="M34.0418 9.74792L17.0188 0L0 9.74792V29.2479L17.0188 39L34.0418 29.2479V9.74792Z" fill="white"/>
<path d="M9.48863 26.1136C10.1841 26.8036 11.3154 26.8036 12.0109 26.1136C12.7064 25.4235 12.7064 24.3012 12.0109 23.6111L6.61027 18.2529C5.91477 17.5628 4.78353 17.5628 4.08803 18.2529C3.39253 18.9429 3.39253 20.0653 4.08803 20.7553L7.28482 23.9187L9.49282 26.1177L9.48863 26.1136Z" fill="black"/>
<path d="M12.0113 12.8864C11.3158 12.1964 10.1846 12.1964 9.48909 12.8864L4.08849 18.2447C3.40556 18.9222 3.36366 19.9823 4.01727 20.6765L4.04659 20.7056L4.0843 20.743C4.0843 20.743 4.08849 20.7471 4.09268 20.7513C4.09268 20.7513 4.09687 20.7554 4.10106 20.7596L7.28947 23.9188C5.57167 22.2145 7.87604 19.5042 7.87604 19.5042L12.0197 15.393C12.7152 14.703 12.7152 13.5806 12.0197 12.8906L12.0113 12.8864Z" fill="black"/>
<path d="M24.5517 12.8867C23.8562 12.1966 22.7249 12.1966 22.0294 12.8867C21.3339 13.5767 21.3339 14.6991 22.0294 15.3891L27.43 20.7474C28.1255 21.4374 29.2568 21.4374 29.9523 20.7474C30.6478 20.0573 30.6478 18.935 29.9523 18.2449L26.7555 15.0815L24.5475 12.8825L24.5517 12.8867Z" fill="black"/>
<path d="M22.03 26.1139C22.7255 26.804 23.8567 26.804 24.5522 26.1139L29.9528 20.7557C30.6358 20.0781 30.6777 19.0181 30.0241 18.3239L29.9947 18.2948L29.957 18.2574C29.957 18.2574 29.9528 18.2533 29.9487 18.2491C29.9487 18.2491 29.9445 18.2449 29.9403 18.2408L26.7519 15.0815C28.4697 16.7859 26.1653 19.4962 26.1653 19.4962L22.0216 23.6073C21.3261 24.2974 21.3261 25.4197 22.0216 26.1098L22.03 26.1139Z" fill="black"/>
<path d="M16.2853 26.8329C16.059 27.5437 15.2169 27.9179 14.404 27.6643C13.5912 27.4107 13.1136 26.6292 13.3357 25.9184L17.7559 12.1715C17.9821 11.4607 18.8242 11.0866 19.6371 11.3402C20.4499 11.5937 20.9275 12.3752 20.7054 13.0902L16.2853 26.8371V26.8329Z" fill="black"/>
</svg>
