<svg preserveAspectRatio="none" width="100%" height="100%" overflow="visible" style="display: block;" viewBox="0 0 16 21" fill="none" xmlns="http://www.w3.org/2000/svg">
<path id="Vector" d="M5.95715 0.690684C4.76764 1.15114 3.73161 1.82743 2.84907 2.71957C1.96653 3.6117 1.27105 4.70049 0.762632 5.98593C0.254212 7.27137 0 8.74867 0 10.4178C0 12.087 0.220638 13.5643 0.661908 14.8497C1.10318 16.1352 1.73631 17.2239 2.56129 18.1161C3.38627 19.0082 4.39352 19.6845 5.58303 20.145C6.77254 20.6054 8.11554 20.8356 9.61202 20.8356C10.3795 20.8356 11.0989 20.7925 11.7704 20.7061C12.4419 20.6198 13.0463 20.5047 13.5835 20.3608C14.1207 20.2169 14.5859 20.0682 14.9792 19.9147C15.3725 19.7612 15.6843 19.6078 15.9145 19.4543L14.936 16.4901C14.4948 16.7203 13.8712 16.9649 13.0654 17.2239C12.2596 17.4829 11.214 17.6124 9.92859 17.6124C8.85419 17.6124 7.93328 17.435 7.16585 17.08C6.39842 16.7251 5.7653 16.2263 5.26647 15.5836C4.76764 14.9408 4.39832 14.1782 4.1585 13.2957C3.91868 12.4131 3.79877 11.4443 3.79877 10.389C3.79877 9.19953 3.95225 8.15391 4.25922 7.25218C4.56619 6.35046 4.99307 5.60222 5.53986 5.00746C6.08666 4.4127 6.73417 3.96664 7.48242 3.66926C8.23066 3.37188 9.03645 3.22319 9.89981 3.22319C10.8975 3.22319 11.8232 3.3527 12.6769 3.6117C13.5307 3.87071 14.1878 4.1441 14.6483 4.43189L15.7131 1.4677C15.5788 1.39096 15.3485 1.26625 15.0224 1.09358C14.6962 0.920912 14.2837 0.757833 13.7849 0.604348C13.2861 0.450863 12.7009 0.311767 12.0294 0.18706C11.3579 0.0623532 10.6097 0 9.78469 0C8.42251 0 7.14667 0.230227 5.95715 0.690684Z" fill="url(#paint0_linear_16_628)"/>
<defs>
<linearGradient id="paint0_linear_16_628" x1="0" y1="10.4178" x2="148.799" y2="10.4178" gradientUnits="userSpaceOnUse">
<stop offset="0.09" stop-color="#0279AD"/>
<stop offset="0.33" stop-color="#3A9586"/>
<stop offset="0.62" stop-color="#78B45C"/>
<stop offset="0.83" stop-color="#9FC842"/>
<stop offset="0.94" stop-color="#AED038"/>
</linearGradient>
</defs>
</svg>
